<svg version="1.1" id="el_grmhvYgPG" xmlns="http://www.w3.org/2000/svg" xmlns:xlink="http://www.w3.org/1999/xlink" x="0px" y="0px" viewBox="0 0 636 140" style="enable-background:new 0 0 636.1 140.4;" xml:space="preserve"><style>@-webkit-keyframes kf_el_BUUbnhP6eN_an_c_JRY00gJ{0%{opacity: 0;}50%{opacity: 0;}75%{opacity: 1;}100%{opacity: 1;}}@keyframes kf_el_BUUbnhP6eN_an_c_JRY00gJ{0%{opacity: 0;}50%{opacity: 0;}75%{opacity: 1;}100%{opacity: 1;}}@-webkit-keyframes kf_el_vYCdt1GGXG_an_rXXTvjL1v{0%{opacity: 0;}25%{opacity: 0;}50%{opacity: 1;}100%{opacity: 1;}}@keyframes kf_el_vYCdt1GGXG_an_rXXTvjL1v{0%{opacity: 0;}25%{opacity: 0;}50%{opacity: 1;}100%{opacity: 1;}}@-webkit-keyframes kf_el_UR2cWtq0_P_an_nmVcmplBb{0%{opacity: 0;}25%{opacity: 1;}100%{opacity: 1;}}@keyframes kf_el_UR2cWtq0_P_an_nmVcmplBb{0%{opacity: 0;}25%{opacity: 1;}100%{opacity: 1;}}@-webkit-keyframes kf_el_BUUbnhP6eN_an_5cpt9aGDF{0%{-webkit-transform: translate(-0.02805614471435547px, 76.67194366455078px) translate(0.02805614471435547px, -76.67194366455078px) translate(0px, 150px);transform: translate(-0.02805614471435547px, 76.67194366455078px) translate(0.02805614471435547px, -76.67194366455078px) translate(0px, 150px);}25%{-webkit-transform: translate(-0.02805614471435547px, 76.67194366455078px) translate(0.02805614471435547px, -76.67194366455078px) translate(0px, 150px);transform: translate(-0.02805614471435547px, 76.67194366455078px) translate(0.02805614471435547px, -76.67194366455078px) translate(0px, 150px);}50%{-webkit-transform: translate(-0.02805614471435547px, 76.67194366455078px) translate(0.02805614471435547px, -76.67194366455078px) translate(0px, 150px);transform: translate(-0.02805614471435547px, 76.67194366455078px) translate(0.02805614471435547px, -76.67194366455078px) translate(0px, 150px);}75%{-webkit-transform: translate(-0.02805614471435547px, 76.67194366455078px) translate(0.02805614471435547px, -76.67194366455078px) translate(0px, 0px);transform: translate(-0.02805614471435547px, 76.67194366455078px) translate(0.02805614471435547px, -76.67194366455078px) translate(0px, 0px);}100%{-webkit-transform: translate(-0.02805614471435547px, 76.67194366455078px) translate(0.02805614471435547px, -76.67194366455078px) translate(0px, 0px);transform: translate(-0.02805614471435547px, 76.67194366455078px) translate(0.02805614471435547px, -76.67194366455078px) translate(0px, 0px);}}@keyframes kf_el_BUUbnhP6eN_an_5cpt9aGDF{0%{-webkit-transform: translate(-0.02805614471435547px, 76.67194366455078px) translate(0.02805614471435547px, -76.67194366455078px) translate(0px, 150px);transform: translate(-0.02805614471435547px, 76.67194366455078px) translate(0.02805614471435547px, -76.67194366455078px) translate(0px, 150px);}25%{-webkit-transform: translate(-0.02805614471435547px, 76.67194366455078px) translate(0.02805614471435547px, -76.67194366455078px) translate(0px, 150px);transform: translate(-0.02805614471435547px, 76.67194366455078px) translate(0.02805614471435547px, -76.67194366455078px) translate(0px, 150px);}50%{-webkit-transform: translate(-0.02805614471435547px, 76.67194366455078px) translate(0.02805614471435547px, -76.67194366455078px) translate(0px, 150px);transform: translate(-0.02805614471435547px, 76.67194366455078px) translate(0.02805614471435547px, -76.67194366455078px) translate(0px, 150px);}75%{-webkit-transform: translate(-0.02805614471435547px, 76.67194366455078px) translate(0.02805614471435547px, -76.67194366455078px) translate(0px, 0px);transform: translate(-0.02805614471435547px, 76.67194366455078px) translate(0.02805614471435547px, -76.67194366455078px) translate(0px, 0px);}100%{-webkit-transform: translate(-0.02805614471435547px, 76.67194366455078px) translate(0.02805614471435547px, -76.67194366455078px) translate(0px, 0px);transform: translate(-0.02805614471435547px, 76.67194366455078px) translate(0.02805614471435547px, -76.67194366455078px) translate(0px, 0px);}}@-webkit-keyframes kf_el_vYCdt1GGXG_an_cbXmE_s4S{0%{-webkit-transform: translate(-0.02805614471435547px, 53.089317321777344px) translate(0.02805614471435547px, -53.089317321777344px) translate(0px, 150px);transform: translate(-0.02805614471435547px, 53.089317321777344px) translate(0.02805614471435547px, -53.089317321777344px) translate(0px, 150px);}25%{-webkit-transform: translate(-0.02805614471435547px, 53.089317321777344px) translate(0.02805614471435547px, -53.089317321777344px) translate(0px, 150px);transform: translate(-0.02805614471435547px, 53.089317321777344px) translate(0.02805614471435547px, -53.089317321777344px) translate(0px, 150px);}50%{-webkit-transform: translate(-0.02805614471435547px, 53.089317321777344px) translate(0.02805614471435547px, -53.089317321777344px) translate(0px, 0px);transform: translate(-0.02805614471435547px, 53.089317321777344px) translate(0.02805614471435547px, -53.089317321777344px) translate(0px, 0px);}100%{-webkit-transform: translate(-0.02805614471435547px, 53.089317321777344px) translate(0.02805614471435547px, -53.089317321777344px) translate(0px, 0px);transform: translate(-0.02805614471435547px, 53.089317321777344px) translate(0.02805614471435547px, -53.089317321777344px) translate(0px, 0px);}}@keyframes kf_el_vYCdt1GGXG_an_cbXmE_s4S{0%{-webkit-transform: translate(-0.02805614471435547px, 53.089317321777344px) translate(0.02805614471435547px, -53.089317321777344px) translate(0px, 150px);transform: translate(-0.02805614471435547px, 53.089317321777344px) translate(0.02805614471435547px, -53.089317321777344px) translate(0px, 150px);}25%{-webkit-transform: translate(-0.02805614471435547px, 53.089317321777344px) translate(0.02805614471435547px, -53.089317321777344px) translate(0px, 150px);transform: translate(-0.02805614471435547px, 53.089317321777344px) translate(0.02805614471435547px, -53.089317321777344px) translate(0px, 150px);}50%{-webkit-transform: translate(-0.02805614471435547px, 53.089317321777344px) translate(0.02805614471435547px, -53.089317321777344px) translate(0px, 0px);transform: translate(-0.02805614471435547px, 53.089317321777344px) translate(0.02805614471435547px, -53.089317321777344px) translate(0px, 0px);}100%{-webkit-transform: translate(-0.02805614471435547px, 53.089317321777344px) translate(0.02805614471435547px, -53.089317321777344px) translate(0px, 0px);transform: translate(-0.02805614471435547px, 53.089317321777344px) translate(0.02805614471435547px, -53.089317321777344px) translate(0px, 0px);}}@-webkit-keyframes kf_el_UR2cWtq0_P_an_uYPjr7wii{0%{-webkit-transform: translate(0px, 6.050000190734863px) translate(0px, -6.050000190734863px) translate(0px, 150px);transform: translate(0px, 6.050000190734863px) translate(0px, -6.050000190734863px) translate(0px, 150px);}25%{-webkit-transform: translate(0px, 6.050000190734863px) translate(0px, -6.050000190734863px) translate(0px, 0px);transform: translate(0px, 6.050000190734863px) translate(0px, -6.050000190734863px) translate(0px, 0px);}100%{-webkit-transform: translate(0px, 6.050000190734863px) translate(0px, -6.050000190734863px) translate(0px, 0px);transform: translate(0px, 6.050000190734863px) translate(0px, -6.050000190734863px) translate(0px, 0px);}}@keyframes kf_el_UR2cWtq0_P_an_uYPjr7wii{0%{-webkit-transform: translate(0px, 6.050000190734863px) translate(0px, -6.050000190734863px) translate(0px, 150px);transform: translate(0px, 6.050000190734863px) translate(0px, -6.050000190734863px) translate(0px, 150px);}25%{-webkit-transform: translate(0px, 6.050000190734863px) translate(0px, -6.050000190734863px) translate(0px, 0px);transform: translate(0px, 6.050000190734863px) translate(0px, -6.050000190734863px) translate(0px, 0px);}100%{-webkit-transform: translate(0px, 6.050000190734863px) translate(0px, -6.050000190734863px) translate(0px, 0px);transform: translate(0px, 6.050000190734863px) translate(0px, -6.050000190734863px) translate(0px, 0px);}}#el_grmhvYgPG *{-webkit-animation-duration: 4s;animation-duration: 4s;-webkit-animation-iteration-count: 1;animation-iteration-count: 1;-webkit-animation-timing-function: cubic-bezier(0, 0, 1, 1);animation-timing-function: cubic-bezier(0, 0, 1, 1);}#el_ScnL6ExIvs{fill: url(#SVGID_1_);}#el_uNq-m0SpJL{fill: url(#SVGID_2_);}#el_E2j-GLnOa9{fill: url(#SVGID_3_);}#el_YRotUbtqYA{fill: url(#SVGID_4_);}#el_iAhgfsM18G{fill: url(#SVGID_5_);}#el_OP27xQ2y3X{fill: url(#SVGID_6_);}#el_1o1xyHD6Bt{fill: url(#SVGID_7_);}#el_bvF6qBeLaP{fill: url(#SVGID_8_);}#el_L8ukGvz0Pe{fill: url(#SVGID_9_);}#el_UR2cWtq0_P_an_uYPjr7wii{-webkit-animation-fill-mode: forwards;animation-fill-mode: forwards;-webkit-transform: translate(0px, 6.050000190734863px) translate(0px, -6.050000190734863px) translate(0px, 150px);transform: translate(0px, 6.050000190734863px) translate(0px, -6.050000190734863px) translate(0px, 150px);-webkit-animation-name: kf_el_UR2cWtq0_P_an_uYPjr7wii;animation-name: kf_el_UR2cWtq0_P_an_uYPjr7wii;-webkit-animation-timing-function: cubic-bezier(0.42, 0, 0.58, 1);animation-timing-function: cubic-bezier(0.42, 0, 0.58, 1);}#el_vYCdt1GGXG_an_cbXmE_s4S{-webkit-animation-fill-mode: forwards;animation-fill-mode: forwards;-webkit-transform: translate(-0.02805614471435547px, 53.089317321777344px) translate(0.02805614471435547px, -53.089317321777344px) translate(0px, 150px);transform: translate(-0.02805614471435547px, 53.089317321777344px) translate(0.02805614471435547px, -53.089317321777344px) translate(0px, 150px);-webkit-animation-name: kf_el_vYCdt1GGXG_an_cbXmE_s4S;animation-name: kf_el_vYCdt1GGXG_an_cbXmE_s4S;-webkit-animation-timing-function: cubic-bezier(0, 0, 1, 1);animation-timing-function: cubic-bezier(0, 0, 1, 1);}#el_BUUbnhP6eN_an_5cpt9aGDF{-webkit-animation-fill-mode: forwards;animation-fill-mode: forwards;-webkit-transform: translate(-0.02805614471435547px, 76.67194366455078px) translate(0.02805614471435547px, -76.67194366455078px) translate(0px, 150px);transform: translate(-0.02805614471435547px, 76.67194366455078px) translate(0.02805614471435547px, -76.67194366455078px) translate(0px, 150px);-webkit-animation-name: kf_el_BUUbnhP6eN_an_5cpt9aGDF;animation-name: kf_el_BUUbnhP6eN_an_5cpt9aGDF;-webkit-animation-timing-function: cubic-bezier(0, 0, 1, 1);animation-timing-function: cubic-bezier(0, 0, 1, 1);}#el_UR2cWtq0_P{-webkit-animation-fill-mode: forwards;animation-fill-mode: forwards;opacity: 0;-webkit-animation-name: kf_el_UR2cWtq0_P_an_nmVcmplBb;animation-name: kf_el_UR2cWtq0_P_an_nmVcmplBb;-webkit-animation-timing-function: cubic-bezier(0, 0, 1, 1);animation-timing-function: cubic-bezier(0, 0, 1, 1);}#el_vYCdt1GGXG{-webkit-animation-fill-mode: forwards;animation-fill-mode: forwards;opacity: 0;-webkit-animation-name: kf_el_vYCdt1GGXG_an_rXXTvjL1v;animation-name: kf_el_vYCdt1GGXG_an_rXXTvjL1v;-webkit-animation-timing-function: cubic-bezier(0, 0, 1, 1);animation-timing-function: cubic-bezier(0, 0, 1, 1);}#el_BUUbnhP6eN{-webkit-animation-fill-mode: forwards;animation-fill-mode: forwards;opacity: 0;-webkit-animation-name: kf_el_BUUbnhP6eN_an_c_JRY00gJ;animation-name: kf_el_BUUbnhP6eN_an_c_JRY00gJ;-webkit-animation-timing-function: cubic-bezier(0, 0, 1, 1);animation-timing-function: cubic-bezier(0, 0, 1, 1);}</style>

<linearGradient id="SVGID_1_" gradientUnits="userSpaceOnUse" x1="-14.647" y1="54.2922" x2="656.5567" y2="54.2922">
	<stop offset="1.502404e-03" style="stop-color:#DA8CFF"/>
	<stop offset="1" style="stop-color:#9A55FF"/>
</linearGradient>
<path d="M202.9,65.2v38.1h-23.9v-98h38.7c7.6,0,14.2,1.4,19.6,4.2c5.4,2.8,9.5,6.5,12.3,11c2.7,4.6,4.1,9.5,4.1,14.8&#10;&#9;c0,4.5-1.1,9-3.3,13.5c-2.2,4.5-6,8.4-11.4,11.6c-5.4,3.2-12.5,4.8-21.4,4.8H202.9z M226.3,43.8c2.1-2.1,3.1-5,3.1-8.5&#10;&#9;c0-3.4-1.1-6.3-3.2-8.5c-2.1-2.2-5-3.3-8.5-3.3h-14.8V47h14.8C221.4,47,224.2,46,226.3,43.8z" id="el_ScnL6ExIvs"/>
<linearGradient id="SVGID_2_" gradientUnits="userSpaceOnUse" x1="-14.647" y1="64.76" x2="656.5567" y2="64.76">
	<stop offset="1.502404e-03" style="stop-color:#DA8CFF"/>
	<stop offset="1" style="stop-color:#9A55FF"/>
</linearGradient>
<path d="M340.9,25.4v77.9H317V91.8c-2.3,3.8-5.5,6.8-9.6,9c-4,2.2-8.7,3.3-14,3.3c-5.9,0-11-1.3-15.6-4&#10;&#9;c-4.5-2.7-8-6.5-10.6-11.5c-2.6-5-3.8-10.9-3.8-17.7V25.4h23.7v42.3c0,5,1.3,8.9,4,11.7c2.7,2.7,6.3,4.1,11,4.1&#10;&#9;c4.7,0,8.3-1.4,11-4.1c2.7-2.7,4-6.6,4-11.7V25.4H340.9z" id="el_uNq-m0SpJL"/>
<linearGradient id="SVGID_3_" gradientUnits="userSpaceOnUse" x1="-14.647" y1="63.9224" x2="656.5567" y2="63.9224">
	<stop offset="1.502404e-03" style="stop-color:#DA8CFF"/>
	<stop offset="1" style="stop-color:#9A55FF"/>
</linearGradient>
<path d="M395.3,28.7c3.8-2.7,8-4.1,12.7-4.1v24.3h-5.9c-5.5,0-9.6,1.3-12.4,3.9c-2.7,2.6-4.1,7.2-4.1,13.7v36.8h-23.9&#10;&#9;V25.4h23.9v14.5C388.3,35.2,391.5,31.4,395.3,28.7z" id="el_E2j-GLnOa9"/>
<linearGradient id="SVGID_4_" gradientUnits="userSpaceOnUse" x1="-14.647" y1="82.4849" x2="656.5567" y2="82.4849">
	<stop offset="1.502404e-03" style="stop-color:#DA8CFF"/>
	<stop offset="1" style="stop-color:#9A55FF"/>
</linearGradient>
<path d="M485.5,29.7c5.4,3.4,9.7,8.1,12.9,14.2c3.2,6,4.7,12.9,4.7,20.7c0,7.7-1.6,14.6-4.7,20.7&#10;&#9;c-3.2,6-7.5,10.7-12.9,14.1s-11.4,5-17.8,5c-9.7,0-17.3-4.1-22.9-12.3v48.4H421v-115h23.9v10.2c5.3-7.3,12.9-11,22.9-11&#10;&#9;C474.2,24.6,480.1,26.3,485.5,29.7z M453.7,47.4c-2.6,1.4-4.7,3.6-6.4,6.4c-1.6,2.8-2.4,6.4-2.4,10.5c0,4.2,0.8,7.7,2.4,10.6&#10;&#9;c1.6,2.9,3.8,5,6.4,6.5c2.7,1.4,5.4,2.2,8.2,2.2c2.9,0,5.6-0.7,8.2-2.2c2.6-1.4,4.7-3.6,6.3-6.4c1.6-2.8,2.4-6.4,2.4-10.5&#10;&#9;c0-4.2-0.8-7.7-2.4-10.6c-1.6-2.9-3.8-5-6.4-6.5c-2.7-1.4-5.4-2.2-8.2-2.2C459,45.2,456.3,45.9,453.7,47.4z" id="el_YRotUbtqYA"/>
<linearGradient id="SVGID_5_" gradientUnits="userSpaceOnUse" x1="-14.647" y1="51.6404" x2="656.5567" y2="51.6404">
	<stop offset="1.502404e-03" style="stop-color:#DA8CFF"/>
	<stop offset="1" style="stop-color:#9A55FF"/>
</linearGradient>
<path d="M542.3,0v103.3h-23.9V0H542.3z" id="el_iAhgfsM18G"/>
<linearGradient id="SVGID_6_" gradientUnits="userSpaceOnUse" x1="-14.647" y1="64.4106" x2="656.5567" y2="64.4106">
	<stop offset="1.502404e-03" style="stop-color:#DA8CFF"/>
	<stop offset="1" style="stop-color:#9A55FF"/>
</linearGradient>
<path d="M635.5,72.2h-53.6c0.5,3.4,2,6.3,4.6,8.4c2.6,2.2,5.9,3.3,9.8,3.3c3,0,5.2-0.4,6.7-1.3c1.5-0.9,3.1-2.3,4.7-4.4&#10;&#9;h25.8c-2.2,7.8-6.7,14.1-13.4,18.9c-6.7,4.8-14.7,7.2-23.9,7.2c-7.4,0-14.1-1.6-20-4.9c-5.9-3.3-10.5-7.9-13.8-14&#10;&#9;c-3.3-6.1-5-13.1-5-21.1c0-8,1.7-15,5-21c3.3-6,7.9-10.6,13.7-13.8c5.9-3.2,12.5-4.8,20-4.8c7.5,0,14.3,1.6,20.4,4.7&#10;&#9;c6,3.1,10.8,7.7,14.3,13.7c3.5,6,5.2,13.3,5.2,21.6C636.1,67.3,635.9,69.8,635.5,72.2z M611.2,57.2c-0.4-3.6-2-6.6-4.7-8.9&#10;&#9;c-2.8-2.3-6.2-3.4-10.3-3.4c-3.5,0-6.6,1.1-9.2,3.4c-2.6,2.3-4.2,5.2-4.9,8.9H611.2z" id="el_OP27xQ2y3X"/>
<g id="el_UR2cWtq0_P_an_uYPjr7wii" data-animator-group="true" data-animator-type="0"><g id="el_UR2cWtq0_P">
	<g id="el_fUS2IhIi3c">
		<linearGradient id="SVGID_7_" gradientUnits="userSpaceOnUse" x1="-14.647" y1="33.7483" x2="656.5567" y2="33.7483">
			<stop offset="1.502404e-03" style="stop-color:#DA8CFF"/>
			<stop offset="1" style="stop-color:#9A55FF"/>
		</linearGradient>
		<path d="M100.2,30L53.1,6.5c-1.2-0.6-2.5-0.6-3.7,0L2.3,30C0.9,30.7,0,32.2,0,33.7c0,1.6,0.9,3,2.3,3.7L49.4,61&#10;&#9;&#9;&#9;c0.6,0.3,1.2,0.4,1.9,0.4c0.6,0,1.3-0.1,1.9-0.4l47.1-23.5c1.4-0.7,2.3-2.1,2.3-3.7C102.5,32.2,101.6,30.7,100.2,30z M51.2,52.7&#10;&#9;&#9;&#9;L13.4,33.7l37.8-18.9l37.8,18.9L51.2,52.7z" id="el_1o1xyHD6Bt"/>
	</g>
</g></g>
<g id="el_BUUbnhP6eN_an_5cpt9aGDF" data-animator-group="true" data-animator-type="0"><g id="el_BUUbnhP6eN">
	<g id="el_bdSmHk61an">
		<linearGradient id="SVGID_8_" gradientUnits="userSpaceOnUse" x1="-14.647" y1="92.6076" x2="656.5567" y2="92.6076">
			<stop offset="1.502404e-03" style="stop-color:#DA8CFF"/>
			<stop offset="1" style="stop-color:#9A55FF"/>
		</linearGradient>
		<path d="M102,79c-1-2-3.5-2.9-5.6-1.9L51.2,99.8L6,77.1c-2-1-4.5-0.2-5.6,1.9c-1,2-0.2,4.5,1.9,5.6l47.1,23.5&#10;&#9;&#9;&#9;c0.6,0.3,1.2,0.4,1.9,0.4c0.6,0,1.3-0.1,1.9-0.4l47.1-23.5C102.2,83.5,103,81,102,79z" id="el_bvF6qBeLaP"/>
	</g>
</g></g>
<g id="el_vYCdt1GGXG_an_cbXmE_s4S" data-animator-group="true" data-animator-type="0"><g id="el_vYCdt1GGXG">
	<g id="el_MSTgSab1YE">
		<linearGradient id="SVGID_9_" gradientUnits="userSpaceOnUse" x1="-14.647" y1="69.0637" x2="656.5567" y2="69.0637">
			<stop offset="1.502404e-03" style="stop-color:#DA8CFF"/>
			<stop offset="1" style="stop-color:#9A55FF"/>
		</linearGradient>
		<path d="M102,55.4c-1-2-3.5-2.9-5.6-1.9L51.2,76.2L6,53.6c-2-1-4.5-0.2-5.6,1.9c-1,2-0.2,4.5,1.9,5.6l47.1,23.5&#10;&#9;&#9;&#9;c0.6,0.3,1.2,0.4,1.9,0.4c0.6,0,1.3-0.1,1.9-0.4L100.2,61C102.2,60,103,57.5,102,55.4z" id="el_L8ukGvz0Pe"/>
	</g>
</g></g>
</svg>