<svg version="1.1" id="el_B_f1HbVPF" xmlns="http://www.w3.org/2000/svg" xmlns:xlink="http://www.w3.org/1999/xlink" x="0px" y="0px" viewBox="0 0 102 102" style="enable-background:new 0 0 102.5 102.5;" xml:space="preserve"><style>@-webkit-keyframes kf_el_2GzBk0InnX_an_HAOitDAwx{0%{opacity: 0;}100%{opacity: 1;}}@keyframes kf_el_2GzBk0InnX_an_HAOitDAwx{0%{opacity: 0;}100%{opacity: 1;}}@-webkit-keyframes kf_el_ln16kMYUpU_an_gz9laWGq_{0%{opacity: 0;}66.67%{opacity: 1;}100%{opacity: 1;}}@keyframes kf_el_ln16kMYUpU_an_gz9laWGq_{0%{opacity: 0;}66.67%{opacity: 1;}100%{opacity: 1;}}@-webkit-keyframes kf_el_EjeTtxuyby_an_H-EkHRrBb{0%{opacity: 0;}33.33%{opacity: 1;}100%{opacity: 1;}}@keyframes kf_el_EjeTtxuyby_an_H-EkHRrBb{0%{opacity: 0;}33.33%{opacity: 1;}100%{opacity: 1;}}#el_B_f1HbVPF *{-webkit-animation-duration: 3s;animation-duration: 3s;-webkit-animation-iteration-count: infinite;animation-iteration-count: infinite;-webkit-animation-timing-function: cubic-bezier(0, 0, 1, 1);animation-timing-function: cubic-bezier(0, 0, 1, 1);}#el_WoVqrBM2Bb{fill: url(#SVGID_1_);}#el_5mDoyZFdNI{fill: url(#SVGID_2_);}#el_uLGyUJogts{fill: url(#SVGID_3_);}#el_ln16kMYUpU_an_4ZkoxDAXr{-webkit-transform: translate(-0.02805614471435547px, 47.07194519042969px) translate(0.02805614471435547px, -47.07194519042969px) translate(0px, 0px);transform: translate(-0.02805614471435547px, 47.07194519042969px) translate(0.02805614471435547px, -47.07194519042969px) translate(0px, 0px);}#el_ln16kMYUpU_an_WL_17Aqt_{-webkit-transform: translate(-0.02805614471435547px, 47.07194519042969px) rotate(0deg) translate(0.02805614471435547px, -47.07194519042969px);transform: translate(-0.02805614471435547px, 47.07194519042969px) rotate(0deg) translate(0.02805614471435547px, -47.07194519042969px);}#el_EjeTtxuyby{-webkit-animation-fill-mode: backwards;animation-fill-mode: backwards;opacity: 0;-webkit-animation-name: kf_el_EjeTtxuyby_an_H-EkHRrBb;animation-name: kf_el_EjeTtxuyby_an_H-EkHRrBb;-webkit-animation-timing-function: cubic-bezier(0, 0, 1, 1);animation-timing-function: cubic-bezier(0, 0, 1, 1);}#el_ln16kMYUpU{-webkit-animation-fill-mode: backwards;animation-fill-mode: backwards;opacity: 0;-webkit-animation-name: kf_el_ln16kMYUpU_an_gz9laWGq_;animation-name: kf_el_ln16kMYUpU_an_gz9laWGq_;-webkit-animation-timing-function: cubic-bezier(0, 0, 1, 1);animation-timing-function: cubic-bezier(0, 0, 1, 1);}#el_2GzBk0InnX{-webkit-animation-fill-mode: backwards;animation-fill-mode: backwards;opacity: 0;-webkit-animation-name: kf_el_2GzBk0InnX_an_HAOitDAwx;animation-name: kf_el_2GzBk0InnX_an_HAOitDAwx;-webkit-animation-timing-function: cubic-bezier(0, 0, 1, 1);animation-timing-function: cubic-bezier(0, 0, 1, 1);}</style>

<g id="el_EjeTtxuyby">
	<g id="el_XcHCtHHAbW">
		<linearGradient id="SVGID_1_" gradientUnits="userSpaceOnUse" x1="-14.647" y1="27.6825" x2="656.5567" y2="27.6825">
			<stop offset="1.502404e-03" style="stop-color:#DA8CFF"/>
			<stop offset="1" style="stop-color:#9A55FF"/>
		</linearGradient>
		<path d="M100.2,24L53.1,0.4c-1.2-0.6-2.5-0.6-3.7,0L2.3,24C0.9,24.7,0,26.1,0,27.7s0.9,3,2.3,3.7l47.1,23.5&#10;&#9;&#9;&#9;c0.6,0.3,1.2,0.4,1.9,0.4c0.6,0,1.3-0.1,1.9-0.4l47.1-23.5c1.4-0.7,2.3-2.1,2.3-3.7C102.5,26.1,101.6,24.7,100.2,24z M51.2,46.6&#10;&#9;&#9;&#9;L13.4,27.7L51.2,8.8l37.8,18.9L51.2,46.6z" id="el_WoVqrBM2Bb"/>
	</g>
</g>
<g id="el_2GzBk0InnX">
	<g id="el_P0jFwnEpKn">
		<linearGradient id="SVGID_2_" gradientUnits="userSpaceOnUse" x1="-14.647" y1="86.5418" x2="656.5567" y2="86.5418">
			<stop offset="1.502404e-03" style="stop-color:#DA8CFF"/>
			<stop offset="1" style="stop-color:#9A55FF"/>
		</linearGradient>
		<path d="M102,72.9c-1-2-3.5-2.9-5.6-1.9L51.2,93.7L6,71.1c-2-1-4.5-0.2-5.6,1.9c-1,2-0.2,4.5,1.9,5.6L49.4,102&#10;&#9;&#9;&#9;c0.6,0.3,1.2,0.4,1.9,0.4c0.6,0,1.3-0.1,1.9-0.4l47.1-23.5C102.2,77.4,103,75,102,72.9z" id="el_5mDoyZFdNI"/>
	</g>
</g>
<g id="el_ln16kMYUpU">
	<g id="el_2ATYmeCOD0">
		<linearGradient id="SVGID_3_" gradientUnits="userSpaceOnUse" x1="-14.647" y1="62.9979" x2="656.5567" y2="62.9979">
			<stop offset="1.502404e-03" style="stop-color:#DA8CFF"/>
			<stop offset="1" style="stop-color:#9A55FF"/>
		</linearGradient>
		<path d="M102,49.4c-1-2-3.5-2.9-5.6-1.9L51.2,70.1L6,47.5c-2-1-4.5-0.2-5.6,1.9c-1,2-0.2,4.5,1.9,5.6l47.1,23.5&#10;&#9;&#9;&#9;c0.6,0.3,1.2,0.4,1.9,0.4c0.6,0,1.3-0.1,1.9-0.4l47.1-23.5C102.2,53.9,103,51.4,102,49.4z" id="el_uLGyUJogts"/>
	</g>
</g>
</svg>